<?xml version="1.0" encoding="UTF-8"?>
<svg width="615px" height="431px" viewBox="0 0 615 431" version="1.1" xmlns="http://www.w3.org/2000/svg" xmlns:xlink="http://www.w3.org/1999/xlink">
    <!-- Generator: Sketch 50.2 (55047) - http://www.bohemiancoding.com/sketch -->
    <title>higherkindness-pattern-top</title>
    <desc>Created with Sketch.</desc>
    <defs>
        <linearGradient x1="50%" y1="0%" x2="50%" y2="100%" id="linearGradient-1">
            <stop stop-color="#43DADE" offset="0%"></stop>
            <stop stop-color="#210A6B" stop-opacity="0" offset="100%"></stop>
        </linearGradient>
    </defs>
    <g id="Page-1" stroke="none" stroke-width="1" fill="none" fill-rule="evenodd" opacity="0.798493304" stroke-linecap="square">
        <g id="background-copy" transform="translate(-20.000000, 0.000000)" stroke="url(#linearGradient-1)">
            <g id="lines" transform="translate(-196.000000, -53.000000)">
                <path d="M239.476562,0 L0,483.777344" id="Line-Copy-2"></path>
                <path d="M280.476562,0 L41,483.777344" id="Line-Copy-3"></path>
                <path d="M321.476562,0 L82,483.777344" id="Line-Copy-4"></path>
                <path d="M362.476562,0 L123,483.777344" id="Line-Copy-5"></path>
                <path d="M403.476562,0 L164,483.777344" id="Line-Copy-6"></path>
                <path d="M444.476562,0 L205,483.777344" id="Line-Copy-7"></path>
                <path d="M485.476562,0 L246,483.777344" id="Line-Copy-8"></path>
                <path d="M526.476562,0 L287,483.777344" id="Line-Copy-9"></path>
                <path d="M567.476562,0 L328,483.777344" id="Line-Copy-10"></path>
                <path d="M608.476562,0 L369,483.777344" id="Line-Copy-11"></path>
                <path d="M649.476562,0 L410,483.777344" id="Line-Copy-12"></path>
                <path d="M690.476562,0 L451,483.777344" id="Line-Copy-13"></path>
                <path d="M731.476562,0 L492,483.777344" id="Line-Copy-14"></path>
                <path d="M772.476562,0 L533,483.777344" id="Line-Copy-15"></path>
                <path d="M813.476562,0 L574,483.777344" id="Line-Copy-16"></path>
                <path d="M854.476562,0 L615,483.777344" id="Line-Copy-17"></path>
                <path d="M895.476562,0 L656,483.777344" id="Line-Copy-18"></path>
                <path d="M936.476562,0 L697,483.777344" id="Line-Copy-19"></path>
                <path d="M977.476562,0 L738,483.777344" id="Line-Copy-20"></path>
                <path d="M1018.47656,0 L779,483.777344" id="Line-Copy-21"></path>
                <path d="M1059.47656,0 L820,483.777344" id="Line-Copy-22"></path>
            </g>
        </g>
    </g>
</svg>