<?xml version="1.0" encoding="UTF-8"?>
<svg width="1300px" height="1975px" viewBox="0 0 1300 1975" version="1.1" xmlns="http://www.w3.org/2000/svg" xmlns:xlink="http://www.w3.org/1999/xlink">
    <!-- Generator: Sketch 50.2 (55047) - http://www.bohemiancoding.com/sketch -->
    <title>higherkindness-pattern-left</title>
    <desc>Created with Sketch.</desc>
    <defs>
        <linearGradient x1="50%" y1="0%" x2="50%" y2="30.7636775%" id="linearGradient-1">
            <stop stop-color="#43DADE" offset="0%"></stop>
            <stop stop-color="#210A6B" offset="100%"></stop>
        </linearGradient>
        <linearGradient x1="50%" y1="0%" x2="50%" y2="100%" id="linearGradient-2">
            <stop stop-color="#43DADE" offset="0%"></stop>
            <stop stop-color="#210A6B" offset="100%"></stop>
        </linearGradient>
    </defs>
    <g id="Page-1" stroke="none" stroke-width="1" fill="none" fill-rule="evenodd">
        <g id="background-copy-2">
            <path d="M-1224.69863,-303 L-3967,5281 L-3401.8974,5281 L-3184.0279,5281 L-2618.9253,5281 L-598.136809,1146.38978 L1421.50076,5281 L1986.14299,5281 L2204.47286,5281 L2769,5281 L26.813727,-303 L-1224.69863,-303 Z M-441.611444,-106.958969 L-203.025356,-106.958969 L-322.03067,136.450001 L-441.611444,-106.958969 Z M-994.629368,-106.958969 L-756.043279,-106.958969 L-875.048593,136.450001 L-994.629368,-106.958969 Z M-1156.79425,2.52896741 L-983.810703,356.578378 L-3306.02561,5085.07422 L-3652.68326,5085.07422 L-1156.79425,2.52896741 Z M-213.038375,358.422386 L-40.1699216,4.83397659 L2454.79835,5085.07422 L2108.1407,5085.07422 L-213.038375,358.422386 Z M-765.711022,357.15463 L-598.827362,17.2810262 L-430.907872,359.229139 L-597.791532,700.716249 L-765.711022,357.15463 Z M-874.933501,579.472766 L-706.783826,923.610638 L-2740.92301,5085.07422 L-3087.58066,5085.07422 L-874.933501,579.472766 Z M-489.144514,923.380137 L-321.915577,581.316774 L1889.92593,5085.07422 L1543.61356,5085.07422 L-489.144514,923.380137 Z" id="Fill-1" fill="url(#linearGradient-1)" opacity="0.215457589"></path>
            <path d="M-516.849317,215 L-1888,3007 L-1605.4487,3007 L-1496.51395,3007 L-1213.96265,3007 L-203.568404,939.694888 L806.25038,3007 L1088.5715,3007 L1197.73643,3007 L1480,3007 L108.906863,215 L-516.849317,215 Z M-125.305722,313.020516 L-6.01267791,313.020516 L-65.5153348,434.725001 L-125.305722,313.020516 Z M-401.814684,313.020516 L-282.52164,313.020516 L-342.024296,434.725001 L-401.814684,313.020516 Z M-482.897124,367.764484 L-396.405351,544.789189 L-1557.51281,2909.03711 L-1730.84163,2909.03711 L-482.897124,367.764484 Z M-11.0191877,545.711193 L75.4150392,368.916988 L1322.89917,2909.03711 L1149.57035,2909.03711 L-11.0191877,545.711193 Z M-287.355511,545.077315 L-203.913681,375.140513 L-119.953936,546.114569 L-203.395766,716.858125 L-287.355511,545.077315 Z M-341.96675,656.236383 L-257.891913,828.305319 L-1274.9615,2909.03711 L-1448.29033,2909.03711 L-341.96675,656.236383 Z M-149.072257,828.190068 L-65.4577887,657.158387 L1040.46297,2909.03711 L867.306781,2909.03711 L-149.072257,828.190068 Z" id="Fill-1" fill="url(#linearGradient-2)" opacity="0.221149554"></path>
        </g>
    </g>
</svg>