<?xml version="1.0" encoding="UTF-8"?>
<svg width="48px" height="48px" viewBox="0 0 48 48" version="1.1" xmlns="http://www.w3.org/2000/svg" xmlns:xlink="http://www.w3.org/1999/xlink">
    <!-- Generator: Sketch 50.2 (55047) - http://www.bohemiancoding.com/sketch -->
    <title>higherkindness-feature-icon-primary</title>
    <desc>Created with Sketch.</desc>
    <defs>
        <linearGradient x1="50%" y1="0%" x2="50%" y2="96.2153817%" id="linearGradient-1">
            <stop stop-color="#43DADE" offset="0%"></stop>
            <stop stop-color="#43DADE" stop-opacity="0.5" offset="100%"></stop>
        </linearGradient>
    </defs>
    <g id="higherkindness-feature-icon-primary" stroke="none" stroke-width="1" fill="none" fill-rule="evenodd">
        <path d="M5,14.696 L5,8 L43,8 L43,14.696 L5,14.696 Z M13.7275,30.316 C13.3365,29.925 13.3365,29.293 13.7275,28.902 L17.3685,25.261 L13.7275,21.62 C13.3365,21.23 13.3365,20.597 13.7275,20.206 C14.1185,19.816 14.7505,19.816 15.1415,20.206 L19.4895,24.554 C19.6775,24.742 19.7825,24.996 19.7825,25.261 C19.7825,25.526 19.6775,25.781 19.4895,25.968 L15.1415,30.316 C14.9465,30.511 14.6905,30.609 14.4345,30.609 C14.1785,30.609 13.9225,30.511 13.7275,30.316 Z M24.8696,27.1309 C24.3176,27.1309 23.8696,26.6829 23.8696,26.1309 C23.8696,25.5789 24.3176,25.1309 24.8696,25.1309 L31.8266,25.1309 C32.3786,25.1309 32.8266,25.5789 32.8266,26.1309 C32.8266,26.6829 32.3786,27.1309 31.8266,27.1309 L24.8696,27.1309 Z M5,39.044 L5,16.696 L43,16.696 L43,39.044 L5,39.044 Z M27.478,13.2178 C26.447,13.2178 25.609,12.3788 25.609,11.3478 C25.609,10.3178 26.447,9.4788 27.478,9.4788 C28.509,9.4788 29.348,10.3178 29.348,11.3478 C29.348,12.3788 28.509,13.2178 27.478,13.2178 Z M32.6958,13.2178 C31.6648,13.2178 30.8258,12.3788 30.8258,11.3478 C30.8258,10.3178 31.6648,9.4788 32.6958,9.4788 C33.7268,9.4788 34.5658,10.3178 34.5658,11.3478 C34.5658,12.3788 33.7268,13.2178 32.6958,13.2178 Z M37.9131,13.2178 C36.8821,13.2178 36.0431,12.3788 36.0431,11.3478 C36.0431,10.3178 36.8821,9.4788 37.9131,9.4788 C38.9441,9.4788 39.7831,10.3178 39.7831,11.3478 C39.7831,12.3788 38.9441,13.2178 37.9131,13.2178 Z M44,6 L4,6 C3.448,6 3,6.448 3,7 L3,40.044 C3,40.596 3.448,41.044 4,41.044 L44,41.044 C44.552,41.044 45,40.596 45,40.044 L45,7 C45,6.448 44.552,6 44,6 Z" id="icon" fill="url(#linearGradient-1)"></path>
    </g>
</svg>