<?xml version="1.0" encoding="UTF-8"?>
<svg width="48px" height="48px" viewBox="0 0 48 48" version="1.1" xmlns="http://www.w3.org/2000/svg" xmlns:xlink="http://www.w3.org/1999/xlink">
    <!-- Generator: Sketch 50.2 (55047) - http://www.bohemiancoding.com/sketch -->
    <title>higherkindness-feature-icon-tertiary</title>
    <desc>Created with Sketch.</desc>
    <defs>
        <linearGradient x1="50%" y1="0%" x2="50%" y2="96.2153817%" id="linearGradient-1">
            <stop stop-color="#43DADE" offset="0%"></stop>
            <stop stop-color="#43DADE" stop-opacity="0.5" offset="100%"></stop>
        </linearGradient>
    </defs>
    <g id="higherkindness-feature-icon-tertiary" stroke="none" stroke-width="1" fill="none" fill-rule="evenodd">
        <path d="M8,32.565 L21.652,32.565 L21.652,22.391 L8,22.391 L8,32.565 Z M10.608,19.652 C10.608,17.327 12.5,15.435 14.826,15.435 C17.151,15.435 19.043,17.327 19.043,19.652 L19.043,20.391 L10.608,20.391 L10.608,19.652 Z M14.8262,23.8696 C15.8562,23.8696 16.6952,24.7086 16.6952,25.7396 C16.6952,26.4016 16.3472,26.9806 15.8262,27.3126 L15.8262,30.0866 C15.8262,30.6396 15.3792,31.0866 14.8262,31.0866 C14.2732,31.0866 13.8262,30.6396 13.8262,30.0866 L13.8262,27.3136 C13.3052,26.9816 12.9562,26.4016 12.9562,25.7396 C12.9562,24.7086 13.7952,23.8696 14.8262,23.8696 Z M23.652,33.565 C23.652,34.118 23.205,34.565 22.652,34.565 L7,34.565 C6.447,34.565 6,34.118 6,33.565 L6,21.391 C6,20.839 6.447,20.391 7,20.391 L8.608,20.391 L8.608,19.652 C8.608,16.224 11.397,13.435 14.826,13.435 C18.254,13.435 21.043,16.224 21.043,19.652 L21.043,20.391 L22.652,20.391 C23.205,20.391 23.652,20.839 23.652,21.391 L23.652,33.565 Z M40.043,3 C40.596,3 41.043,3.448 41.043,4 L41.043,44 C41.043,44.552 40.596,45 40.043,45 L13.956,45 C13.403,45 12.956,44.552 12.956,44 L12.956,37.043 C12.956,36.491 13.403,36.043 13.956,36.043 C14.509,36.043 14.956,36.491 14.956,37.043 L14.956,43 L39.043,43 L39.043,5 L14.956,5 L14.956,10.902 C14.956,11.454 14.509,11.902 13.956,11.902 C13.403,11.902 12.956,11.454 12.956,10.902 L12.956,4 C12.956,3.448 13.403,3 13.956,3 L40.043,3 Z" id="Fill-1" fill="url(#linearGradient-1)"></path>
    </g>
</svg>