<?xml version="1.0" encoding="UTF-8"?>
<svg width="48px" height="48px" viewBox="0 0 48 48" version="1.1" xmlns="http://www.w3.org/2000/svg" xmlns:xlink="http://www.w3.org/1999/xlink">
    <!-- Generator: Sketch 50.2 (55047) - http://www.bohemiancoding.com/sketch -->
    <title>higherkindness-feature-icon-secondary</title>
    <desc>Created with Sketch.</desc>
    <defs>
        <linearGradient x1="50%" y1="0%" x2="50%" y2="96.2153817%" id="linearGradient-1">
            <stop stop-color="#43DADE" offset="0%"></stop>
            <stop stop-color="#43DADE" stop-opacity="0.5" offset="100%"></stop>
        </linearGradient>
    </defs>
    <g id="higherkindness-feature-icon-secondary" stroke="none" stroke-width="1" fill="none" fill-rule="evenodd">
        <path d="M35,41.16825 L35,33.56625 L43,28.76625 L43,36.02225 L35,41.16825 Z M25,28.76625 L33,33.56625 L33,41.16825 L25,36.02225 L25,28.76625 Z M5,28.76625 L13,33.56625 L13,41.16825 L5,36.02225 L5,28.76625 Z M14,21.75725 L22.105,26.97125 L14,31.83425 L5.895,26.97125 L14,21.75725 Z M24,6.16625 L32.057,11.00025 L24,15.83425 L15.943,11.00025 L24,6.16625 Z M23,25.16825 L15,20.02225 L15,12.76625 L23,17.56625 L23,25.16825 Z M33,20.02225 L25,25.16825 L25,17.56625 L33,12.76625 L33,20.02225 Z M15,33.56625 L23,28.76625 L23,36.02225 L15,41.16825 L15,33.56625 Z M34,31.83425 L25.895,26.97125 L34,21.75725 L42.105,26.97125 L34,31.83425 Z M44.931,26.65625 C44.855,26.48125 44.795,26.38825 44.717,26.30725 C44.629,26.23025 44.59,26.19025 44.541,26.15925 L35,20.02325 L35,11.00025 C35,10.87925 34.971,10.76525 34.931,10.65525 C34.851,10.47525 34.79,10.37925 34.711,10.29825 C34.634,10.22925 34.578,10.18125 34.515,10.14325 L24.515,4.14325 C24.198,3.95225 23.802,3.95225 23.485,4.14325 L13.485,10.14325 C13.422,10.18125 13.366,10.22925 13.313,10.27925 C13.209,10.37925 13.149,10.47525 13.102,10.57625 C13.029,10.76525 13,10.87925 13,11.00025 L13,20.02325 L3.459,26.15925 C3.41,26.19025 3.371,26.23025 3.329,26.26925 C3.205,26.38825 3.145,26.48125 3.098,26.58325 C3.031,26.75925 3.007,26.86725 3.004,26.98025 C3.004,26.9849167 3.00266667,30.1809167 3,36.56825 C3,36.90925 3.173,37.22625 3.459,37.40925 L13.459,43.84125 C13.591,43.90225 13.621,43.91825 13.655,43.93125 C13.768,43.97225 13.883,44.00025 14,44.00025 C14.117,44.00025 14.232,43.97225 14.345,43.93125 C14.475,43.87025 14.51,43.86125 14.541,43.84125 L24,37.75725 L33.459,43.84125 C33.591,43.90225 33.621,43.91825 33.655,43.93125 C33.768,43.97225 33.883,44.00025 34,44.00025 C34.117,44.00025 34.232,43.97225 34.345,43.93125 C34.475,43.87025 34.51,43.86125 34.541,43.84125 L44.541,37.40925 C44.827,37.22625 45,36.90925 45,36.56825 L45,27.00025 C44.993,26.86725 44.969,26.76025 44.931,26.65625 Z" id="icon" fill="url(#linearGradient-1)"></path>
    </g>
</svg>