<?xml version="1.0" encoding="UTF-8"?>
<svg width="2596px" height="1211px" viewBox="0 0 2596 1211" version="1.1" xmlns="http://www.w3.org/2000/svg" xmlns:xlink="http://www.w3.org/1999/xlink">
    <title>pattern</title>
    <g id="pattern" stroke="none" stroke-width="1" fill="none" fill-rule="evenodd" opacity="0.2">
        <g id="background" transform="translate(0.000000, -103.000000)" stroke="#FFFFFF">
            <g id="pattern" transform="translate(969.000000, 778.000000)">
                <polyline id="path" points="127.9632 295.6088 512.0032 73.8808 895.9712 295.6008"></polyline>
                <polygon id="path" points="1023.9632 295.6712 895.9632 221.6712 767.9632 295.6712 895.9632 369.6392"></polygon>
                <polyline id="path" points="127.9632 295.6088 512.0032 73.8808 895.9712 295.6008"></polyline>
                <polygon id="path" points="895.9368 369.6704 767.9448 295.7104 767.9448 535.2312 895.9368 609.1352 1023.9928 535.2072 1023.9368 295.7104"></polygon>
                <polygon id="path" points="639.9872 74 511.9872 -4.12114787e-13 383.9872 74 511.9872 147.96"></polygon>
                <polyline id="path" points="127.9632 295.6088 512.0032 73.8808 895.9712 295.6008"></polyline>
                <path d="M384.4632,74.8975721 L384.4632,643.739315 L511.963201,717.346659 L639.519172,643.707331 L639.463285,74.8975229 L511.9632,148.568666 L384.4632,74.8975721 Z" id="path"></path>
                <polygon id="path" points="256.0264 295.664 128.0264 221.664 0.0264 295.664 128.0264 369.624"></polygon>
                <polyline id="path" points="127.9632 295.6088 512.0032 73.8808 895.9712 295.6008"></polyline>
                <polygon id="path" points="127.992 369.656 -2.38742359e-12 295.696 -2.38742359e-12 539.2632 127.992 613.1672 256.048 539.2312 255.992 295.696"></polygon>
            </g>
            <g id="pattern" transform="translate(208.000000, 943.000000)">
                <polyline id="path" points="479.4144 73.984 128.1424 276.896 608.0224 554.136"></polyline>
                <polygon id="path" points="607.4144 74 479.4144 3.97903932e-13 351.4144 74 479.4144 147.968"></polygon>
                <polygon id="path" points="351.4144 74 351.4144 235.515875 479.4144 309.411875 607.4704 235.483875 607.4144 74 479.4144 147.968"></polygon>
                <polygon id="path" points="351.4144 268.812 351.4144 342.748 479.4144 416.644 607.4704 342.716 607.4144 268.812 479.4144 342.78"></polygon>
                <polygon id="path" points="256 276.9136 128 202.9136 0 276.9136 128 350.8816"></polygon>
                <polygon id="path" points="128.0016 350.8824 0.0016 276.9144 0.0016 704.2328 128.0016 778.1368 256.0576 704.2008 256.0016 276.9144"></polygon>
            </g>
            <g id="pattern" transform="translate(1652.000000, 161.000000)">
                <polyline id="path" points="832.0336 73.8752 480.0256 277.1392 128.0176 73.9152"></polyline>
                <polygon id="path" points="960.0336 74 832.0336 3.83693077e-13 704.0336 74 832.0336 147.968"></polygon>
                <polyline id="path" points="832.0336 73.8752 480.0256 277.1392 128.0176 73.9152"></polyline>
                <polygon id="path" points="832.008 147.8432 704.008 73.8752 704.008 288.0016 832.008 361.9056 960.064 287.9776 960.008 73.8752"></polygon>
                <polyline id="path" points="832.0336 73.8752 480.0256 277.1392 128.0176 73.9152"></polyline>
                <polygon id="path" points="832.008 497.9696 704.008 424.0016 704.008 497.9696 832.008 571.8736 960.064 497.9456 960.064 488.6976 960.008 424.0016"></polygon>
                <polygon id="path" points="832.008 393.9696 704.008 320.0016 704.008 393.9696 832.008 467.8736 960.064 393.9456 960.064 384.6976 960.008 320.0016"></polygon>
                <polygon id="path" points="607.9784 277.1408 479.9784 203.1408 351.9784 277.1408 479.9784 351.1008"></polygon>
                <polygon id="path" points="479.9496 351.1352 351.9496 277.1672 351.9496 392.0416 479.9496 465.9456 608.0056 392.0016 607.9416 277.1672"></polygon>
                <polygon id="path" points="479.9496 601.9696 351.9496 528.0016 351.9496 601.9696 479.9496 675.8736 608.0056 601.9296 607.9416 528.0016"></polygon>
                <polygon id="path" points="479.9496 497.9696 351.9496 424.0016 351.9496 497.9696 479.9496 571.8736 608.0056 497.9296 607.9416 424.0016"></polygon>
                <polygon id="path" points="256.0176 73.9144 128.0176 0.0104 0.0176 73.9144 128.0176 147.8104"></polygon>
                <polyline id="path" points="832.0336 73.8752 480.0256 277.1392 128.0176 73.9152"></polyline>
                <polygon id="path" points="127.992 147.8432 -2.38742359e-12 73.8752 -2.38742359e-12 392.0336 127.992 465.9376 256.048 392.0016 255.992 73.8752"></polygon>
                <polyline id="path" points="832.0336 73.8752 480.0256 277.1392 128.0176 73.9152"></polyline>
                <polygon id="path" points="127.992 497.9696 -2.38742359e-12 424.0016 -2.38742359e-12 497.9696 127.992 571.8736 256.048 497.9376 255.992 424.0016"></polygon>
                <polygon id="path" points="127.992 601.9696 -2.38742359e-12 528.0016 -2.38742359e-12 601.9696 127.992 675.8736 256.048 601.9376 255.992 528.0016"></polygon>
            </g>
            <g id="pattern" transform="translate(1066.000000, 196.000000)">
                <polygon id="path" points="256.0336 74 128.0336 0 0.0336 74 128.0336 147.968"></polygon>
                <polygon id="path" points="128.008 147.8432 0.00800000001 73.8752 0.00800000001 242.207594 128.008 316.111594 256.064 242.183594 256.008 73.8752"></polygon>
            </g>
            <g id="pattern" transform="translate(1238.000000, 287.000000)">
                <polygon id="path" points="256.0336 74 128.0336 0 0.0336 74 128.0336 147.968"></polygon>
                <polygon id="path" points="128.008 147.8432 0.00800000001 73.8752 0.00800000001 242.207594 128.008 316.111594 256.064 242.183594 256.008 73.8752"></polygon>
            </g>
            <g id="pattern" transform="translate(775.000000, 696.000000)">
                <polygon id="path" points="256.0336 74 128.0336 0 0.0336 74 128.0336 147.968"></polygon>
                <polygon id="path" points="128.008 147.8432 0.00800000001 73.8752 0.00800000001 242.207594 128.008 316.111594 256.064 242.183594 256.008 73.8752"></polygon>
            </g>
            <g id="pattern">
                <polyline id="path" points="832.0336 73.8752 480.0256 277.1392 128.0176 73.9152"></polyline>
                <polygon id="path" points="960.0336 74 832.0336 3.83693077e-13 704.0336 74 832.0336 147.968"></polygon>
                <polyline id="path" points="832.0336 73.8752 480.0256 277.1392 128.0176 73.9152"></polyline>
                <polygon id="path" points="832.008 147.8432 704.008 73.8752 704.008 251.629469 832.008 325.533469 960.064 251.605469 960.008 73.8752"></polygon>
                <polyline id="path" points="832.0336 73.8752 480.0256 277.1392 128.0176 73.9152"></polyline>
                <polygon id="path" points="832.008 458.968 704.008 385 704.008 458.968 832.008 532.872 960.064 458.944 960.064 449.696 960.008 385"></polygon>
                <polygon id="path" points="832.008 354.968 704.008 281 704.008 354.968 832.008 428.872 960.064 354.944 960.064 345.696 960.008 281"></polygon>
                <polygon id="path" points="607.9784 277.1408 479.9784 203.1408 351.9784 277.1408 479.9784 351.1008"></polygon>
                <polygon id="path" points="479.9496 351.1352 351.9496 277.1672 351.9496 392.0416 479.9496 465.9456 608.0056 392.0016 607.9416 277.1672"></polygon>
                <polygon id="path" points="479.9496 601.9696 351.9496 528.0016 351.9496 601.9696 479.9496 675.8736 608.0056 601.9296 607.9416 528.0016"></polygon>
                <polygon id="path" points="479.9496 497.9696 351.9496 424.0016 351.9496 497.9696 479.9496 571.8736 608.0056 497.9296 607.9416 424.0016"></polygon>
                <polygon id="path" points="256.0176 73.9144 128.0176 0.0104 0.0176 73.9144 128.0176 147.8104"></polygon>
                <polyline id="path" points="832.0336 73.8752 480.0256 277.1392 128.0176 73.9152"></polyline>
                <polygon id="path" points="127.992 147.8432 -2.38742359e-12 73.8752 -2.38742359e-12 392.0336 127.992 465.9376 256.048 392.0016 255.992 73.8752"></polygon>
                <polyline id="path" points="832.0336 73.8752 480.0256 277.1392 128.0176 73.9152"></polyline>
                <polygon id="path" points="127.992 497.9696 -2.38742359e-12 424.0016 -2.38742359e-12 497.9696 127.992 571.8736 256.048 497.9376 255.992 424.0016"></polygon>
                <polygon id="path" points="127.992 601.9696 -2.38742359e-12 528.0016 -2.38742359e-12 601.9696 127.992 675.8736 256.048 601.9376 255.992 528.0016"></polygon>
            </g>
        </g>
    </g>
</svg>
