<?xml version="1.0" encoding="UTF-8"?>
<svg width="133px" height="169px" viewBox="0 0 133 169" version="1.1" xmlns="http://www.w3.org/2000/svg" xmlns:xlink="http://www.w3.org/1999/xlink">
    <title>mu</title>
    <g id="mu" stroke="none" stroke-width="1" fill="none" fill-rule="evenodd">
        <path d="M128.502442,38.1342787 L65.9960002,2 L65.9960002,2 L3.49741704,38.1342517 C3.01929238,38.4106848 2.85578906,39.0223747 3.13222215,39.5004993 C3.21988112,39.6521162 3.34582127,39.7780529 3.49744048,39.8657078 L66,76 L66,76 L128.502466,39.8657619 C128.980598,39.5893417 129.144118,38.9776562 128.867698,38.4995241 C128.780034,38.347889 128.65408,38.2219386 128.502442,38.1342787 Z" id="path" stroke="#FFFFFF" stroke-width="2"></path>
        <polygon id="path" fill="#FFFFFF" points="2.0039995 76 66 113 130 76.0040052 130 71.3860143 129.976003 39.1041351 65.9960005 76 2 39"></polygon>
        <polygon id="path" fill="#FFFFFF" points="2.0039995 131 66 168 130 131.004005 130 126.386014 129.976003 94.1041351 65.9960005 131 2 94"></polygon>
    </g>
</svg>
